HIERARCHY
ROOT hip
{
  OFFSET 0 0 0
  CHANNELS 6 Xposition Yposition Zposition Zrotation Yrotation Xrotation
  JOINT abdomen
  {
    OFFSET 0 20.6881 -0.73152
    CHANNELS 3 Zrotation Xrotation Yrotation
    JOINT chest
    {
      OFFSET 0 11.7043 -0.48768
      CHANNELS 3 Zrotation Xrotation Yrotation
      JOINT neck
      {
        OFFSET 0 22.1894 -2.19456
        CHANNELS 3 Zrotation Xrotation Yrotation
        JOINT head
        {
          OFFSET -0.24384 7.07133 1.2192
          CHANNELS 3 Zrotation Xrotation Yrotation
          JOINT leftEye
          {
            OFFSET 4.14528 8.04674 8.04672
            CHANNELS 3 Zrotation Xrotation Yrotation
            End Site
            {
              OFFSET 1 0 0
            }
          }
          JOINT rightEye
          {
            OFFSET -3.6576 8.04674 8.04672
            CHANNELS 3 Zrotation Xrotation Yrotation
            End Site
            {
              OFFSET 1 0 0
            }
          }
        }
      }
      JOINT rCollar
      {
        OFFSET -2.68224 19.2634 -4.8768
        CHANNELS 3 Zrotation Xrotation Yrotation
        JOINT rShldr
        {
          OFFSET -8.77824 -1.95073 1.46304
          CHANNELS 3 Zrotation Xrotation Yrotation
          JOINT rForeArm
          {
            OFFSET -28.1742 -1.7115 0.48768
            CHANNELS 3 Zrotation Xrotation Yrotation
            JOINT rHand
            {
              OFFSET -22.5879 0.773209 7.07136
              CHANNELS 3 Zrotation Xrotation Yrotation
              JOINT rThumb1
              {
                OFFSET -1.2192 -0.487915 3.41376
                CHANNELS 3 Zrotation Xrotation Yrotation
                JOINT rThumb2
                {
                  OFFSET -3.37035 -0.52449 3.41376
                  CHANNELS 3 Zrotation Xrotation Yrotation
                  End Site
                  {
                    OFFSET -1.78271 -1.18214 1.43049
                  }
                }
              }
              JOINT rIndex1
              {
                OFFSET -7.75947 0.938293 5.60832
                CHANNELS 3 Zrotation Xrotation Yrotation
                JOINT rIndex2
                {
                  OFFSET -2.54057 -0.884171 1.56538
                  CHANNELS 3 Zrotation Xrotation Yrotation
                  End Site
                  {
                    OFFSET -1.62519 -0.234802 1.16502
                  }
                }
              }
              JOINT rMid1
              {
                OFFSET -8.24714 1.18213 3.41376
                CHANNELS 3 Zrotation Xrotation Yrotation
                JOINT rMid2
                {
                  OFFSET -3.10165 -0.590103 1.0647
                  CHANNELS 3 Zrotation Xrotation Yrotation
                  End Site
                  {
                    OFFSET -2.48547 -0.328903 0.83742
                  }
                }
              }
              JOINT rRing1
              {
                OFFSET -8.82822 0.546677 1.51678
                CHANNELS 3 Zrotation Xrotation Yrotation
                JOINT rRing2
                {
                  OFFSET -2.60934 -0.819778 -0.0198488
                  CHANNELS 3 Zrotation Xrotation Yrotation
                  End Site
                  {
                    OFFSET -2.33842 -0.294052 0.168128
                  }
                }
              }
              JOINT rPinky1
              {
                OFFSET -8.27202 -0.0477905 -0.4584
                CHANNELS 3 Zrotation Xrotation Yrotation
                JOINT rPinky2
                {
                  OFFSET -1.82734 -0.647385 -0.700984
                  CHANNELS 3 Zrotation Xrotation Yrotation
                  End Site
                  {
                    OFFSET -1.69225 -0.51767 -0.607171
                  }
                }
              }
            }
          }
        }
      }
      JOINT lCollar
      {
        OFFSET 2.68224 19.2634 -4.8768
        CHANNELS 3 Zrotation Xrotation Yrotation
        JOINT lShldr
        {
          OFFSET 8.77824 -1.95073 1.46304
          CHANNELS 3 Zrotation Xrotation Yrotation
          JOINT lForeArm
          {
            OFFSET 28.1742 -1.7115 0.48768
            CHANNELS 3 Zrotation Xrotation Yrotation
            JOINT lHand
            {
              OFFSET 22.5879 0.773209 7.07136
              CHANNELS 3 Zrotation Xrotation Yrotation
              JOINT lThumb1
              {
                OFFSET 1.2192 -0.487915 3.41376
                CHANNELS 3 Zrotation Xrotation Yrotation
                JOINT lThumb2
                {
                  OFFSET 3.37035 -0.52449 3.41376
                  CHANNELS 3 Zrotation Xrotation Yrotation
                  End Site
                  {
                    OFFSET 1.78271 -1.18214 1.43049
                  }
                }
              }
              JOINT lIndex1
              {
                OFFSET 7.75947 0.938293 5.60832
                CHANNELS 3 Zrotation Xrotation Yrotation
                JOINT lIndex2
                {
                  OFFSET 2.54057 -0.884171 1.56538
                  CHANNELS 3 Zrotation Xrotation Yrotation
                  End Site
                  {
                    OFFSET 1.62519 -0.234802 1.16502
                  }
                }
              }
              JOINT lMid1
              {
                OFFSET 8.24714 1.18213 3.41376
                CHANNELS 3 Zrotation Xrotation Yrotation
                JOINT lMid2
                {
                  OFFSET 3.10165 -0.590103 1.0647
                  CHANNELS 3 Zrotation Xrotation Yrotation
                  End Site
                  {
                    OFFSET 2.48547 -0.328903 0.83742
                  }
                }
              }
              JOINT lRing1
              {
                OFFSET 8.82822 0.546677 1.51678
                CHANNELS 3 Zrotation Xrotation Yrotation
                JOINT lRing2
                {
                  OFFSET 2.60934 -0.819778 -0.0198488
                  CHANNELS 3 Zrotation Xrotation Yrotation
                  End Site
                  {
                    OFFSET 2.33842 -0.294052 0.168128
                  }
                }
              }
              JOINT lPinky1
              {
                OFFSET 8.27202 -0.0477905 -0.4584
                CHANNELS 3 Zrotation Xrotation Yrotation
                JOINT lPinky2
                {
                  OFFSET 1.82734 -0.647385 -0.700984
                  CHANNELS 3 Zrotation Xrotation Yrotation
                  End Site
                  {
                    OFFSET 1.69225 -0.51767 -0.607171
                  }
                }
              }
            }
          }
        }
      }
    }
  }
  JOINT rButtock
  {
    OFFSET -8.77824 4.35084 1.2192
    CHANNELS 3 Zrotation Xrotation Yrotation
    JOINT rThigh
    {
      OFFSET 0 -1.70687 -2.19456
      CHANNELS 3 Zrotation Xrotation Yrotation
      JOINT rShin
      {
        OFFSET 0 -36.8199 0.73152
        CHANNELS 3 Zrotation Xrotation Yrotation
        JOINT rFoot
        {
          OFFSET 0.73152 -45.1104 -5.12064
          CHANNELS 3 Zrotation Xrotation Yrotation
          End Site
          {
            OFFSET -1.1221 -3.69964 12.103
          }
        }
      }
    }
  }
  JOINT lButtock
  {
    OFFSET 8.77824 4.35084 1.2192
    CHANNELS 3 Zrotation Xrotation Yrotation
    JOINT lThigh
    {
      OFFSET 0 -1.70687 -2.19456
      CHANNELS 3 Zrotation Xrotation Yrotation
      JOINT lShin
      {
        OFFSET 0 -36.8199 0.73152
        CHANNELS 3 Zrotation Xrotation Yrotation
        JOINT lFoot
        {
          OFFSET -0.73152 -45.1104 -5.12064
          CHANNELS 3 Zrotation Xrotation Yrotation
          End Site
          {
            OFFSET 1.1221 -3.69964 12.103
          }
        }
      }
    }
  }
}
MOTION
Frames:	4
Frame Time:	0.03333
-2.661900001618082 71.21050043742076 69.93769951141101 -4.267899990081787 -25.462005615234375 -10.862000465393066 8.329670906066895 30.49479866027832 5.928259372711182 -2.649090051651001 -9.039950370788574 1.5884298086166382 -3.9067699909210205 13.627998352050781 1.3676999807357788 4.570879936218262 -27.150697708129883 3.987720012664795 -0.0 0.0 -0.0 -0.0 0.0 -0.0 1.1000998797626362e-14 2.8258398767667947e-13 -1.0055699864095196e-16 65.52069854736328 41.76570510864258 -18.386600494384766 -28.06869888305664 -31.03770637512207 68.90760040283203 -0.17641696333885193 11.90040111541748 1.6970999240875244 -2.0755899221569507e-09 2.37684005810479e-09 1.9260599781745213e-09 -3.571139606250995e-09 4.039149903434236e-09 3.3438498636684244e-09 -2.0755899221569507e-09 2.37684005810479e-09 1.9260599781745213e-09 7.730909824371338 5.474879741668701 0.4173140823841095 -2.0755899221569507e-09 2.3768298440529634e-09 1.9260599781745213e-09 2.9055399894714355 0.9651829600334167 0.10290199518203735 -2.0755899221569507e-09 2.3768298440529634e-09 1.9260599781745213e-09 10.27859878540039 0.73180091381073 0.025912316516041756 -2.0755999141641723e-09 2.37684005810479e-09 1.926069970181743e-09 2.221669912338257 -0.733487069606781 -0.208919957280159 1.0953799580706511e-14 2.82584990563689e-13 -2.958469826659925e-16 -66.87049865722656 19.866300582885742 -4.510169506072998 25.21539878845215 -21.564205169677734 -53.732200622558594 0.9015387892723083 -25.939298629760742 3.919220209121704 2.7990598727711813e-10 7.873330459817751e-12 -2.3713500052480185e-09 5.328539831594981e-10 2.3430399287427406e-10 -4.08933997775307e-09 2.7990298967495164e-10 7.881229523165612e-12 -2.3713500052480185e-09 -7.730909824371338 5.474879741668701 -0.4173140823841095 2.799089848792846e-10 7.881840145829155e-12 -2.371340013240797e-09 -2.9055399894714355 0.9651829600334167 -0.10290199518203735 2.7989499606917434e-10 7.882039639028893e-12 -2.3713500052480185e-09 -10.27859878540039 0.73180091381073 -0.025912316516041756 2.799089848792846e-10 7.877119095889284e-12 -2.3713500052480185e-09 -2.221669912338257 -0.733487069606781 0.208919957280159 -2.0321699480147914e-16 0.0 -3.8825099822884138e-19 -6.863180160522461 -3.8849902153015137 -8.159549713134766 -0.6418619751930237 62.861602783203125 3.6717803478240967 -20.177099227905273 -23.696802139282227 -32.020198822021484 2.0321699480147914e-16 0.0 3.8825099822884138e-19 123.572998046875 -56.302799224853516 117.73699188232422 176.05299377441406 68.64420318603516 -176.7349853515625 -0.723487913608551 13.814499855041504 -1.3915599584579468
-2.5941000020899248 70.90329901912109 71.84669960494574 -4.719299793243408 -26.32050323486328 -9.839899063110352 8.043118476867676 28.963001251220703 6.4952006340026855 -2.3763699531555176 -8.768800735473633 1.7736399173736572 -3.9297597408294678 13.695101737976074 1.6352603435516357 4.853259563446045 -26.57049560546875 4.5524001121521 -0.0 0.0 -0.0 -0.0 0.0 -0.0 1.9149200793295608e-14 2.422590123299373e-13 4.2238199157891565e-14 66.63379669189453 41.857704162597656 -19.513500213623047 -28.119096755981445 -31.377700805664062 69.45479583740234 -0.14873698353767395 10.94430160522461 1.5571999549865723 -1.3614700478115083e-09 1.5257599628171192e-09 1.4576100326735286e-09 -2.3428599060792976e-09 2.5922999302707694e-09 2.529350062729918e-09 -1.3614600558042866e-09 1.5257599628171192e-09 1.4575999296440045e-09 7.730909824371338 5.474879741668701 0.4173140823841095 -1.3614700478115083e-09 1.5257500818322e-09 1.4576100326735286e-09 2.9055399894714355 0.9651829600334167 0.10290199518203735 -1.3614700478115083e-09 1.5257500818322e-09 1.4576100326735286e-09 10.27859878540039 0.73180091381073 0.025912316516041756 -1.3614700478115083e-09 1.5257500818322e-09 1.4576199136584478e-09 2.221669912338257 -0.733487069606781 -0.208919957280159 1.909249871374051e-14 2.4225299500788e-13 4.204059992382429e-14 -68.27569580078125 20.889602661132812 -1.6100404262542725 25.632999420166016 -22.527000427246094 -55.291900634765625 0.7611860632896423 -24.003599166870117 3.5873100757598877 2.638129992238447e-10 -1.2123398951402464e-09 -2.3306698793135183e-09 5.000429514900873e-10 -1.8968999704327416e-09 -4.017679522405615e-09 2.638110008224004e-10 -1.2123300141553273e-09 -2.3306698793135183e-09 -7.730909824371338 5.474879741668701 -0.4173140823841095 2.638159968260112e-10 -1.2123300141553273e-09 -2.3306698793135183e-09 -2.9055399894714355 0.9651829600334167 -0.10290199518203735 2.638030072166231e-10 -1.2123300141553273e-09 -2.330680093365345e-09 -10.27859878540039 0.73180091381073 -0.025912316516041756 2.638159968260112e-10 -1.2123398951402464e-09 -2.3306898633279616e-09 -2.221669912338257 -0.733487069606781 0.208919957280159 -2.0321699480147914e-16 0.0 -3.8825099822884138e-19 -7.088580131530762 -3.1258299350738525 -7.43172025680542 -0.6145179867744446 61.77680587768555 3.516170024871826 -20.48980140686035 -23.817901611328125 -32.17060470581055 2.0321699480147914e-16 0.0 3.8825099822884138e-19 110.15299224853516 -60.15630340576172 102.46199798583984 172.6599884033203 80.19429779052734 -173.08799743652344 0.2618299722671509 17.47439956665039 -5.170039653778076
-2.528500003825386 70.75179859314105 73.99206970720955 -5.488699913024902 -27.369102478027344 -8.800198554992676 8.116820335388184 27.441200256347656 7.152039527893066 -2.390040159225464 -8.395212173461914 1.985649824142456 -3.9014999866485596 13.837602615356445 1.8326196670532227 5.1710405349731445 -26.195301055908203 4.986310958862305 -0.0 0.0 -0.0 -0.0 0.0 -0.0 6.827749628700308e-14 1.8222798487191327e-13 -4.0069896456874227e-14 67.90509796142578 41.80860137939453 -20.570302963256836 -28.17259979248047 -31.764204025268555 70.07319641113281 -0.1436389982700348 10.738100051879883 1.5272700786590576 -8.789119987362426e-10 7.646209221334743e-10 1.1244098985230266e-09 -1.5105600104092787e-09 1.2873099253241094e-09 1.949510108900654e-09 -8.789050043311875e-10 7.646199784439034e-10 1.1243899145085834e-09 7.730909824371338 5.474879741668701 0.4173140823841095 -8.789119987362426e-10 7.646179800424591e-10 1.1244000175381075e-09 2.9055399894714355 0.9651829600334167 0.10290199518203735 -8.78907058243783e-10 7.646169808417369e-10 1.1244000175381075e-09 10.27859878540039 0.73180091381073 0.025912316516041756 -8.789139416265357e-10 7.646139277284192e-10 1.1244000175381075e-09 2.221669912338257 -0.733487069606781 -0.208919957280159 6.81937958792872e-14 1.8221799665939925e-13 -4.026860022190472e-14 -69.66709899902344 21.96070098876953 1.3482308387756348 25.9934024810791 -23.417001724243164 -56.73969650268555 0.6658430099487305 -22.522003173828125 3.3411402702331543 2.005199895016574e-10 -9.013140234159778e-10 -1.5558598853715466e-09 3.762509748206355e-10 -1.4257098834846715e-09 -2.6820698995067005e-09 2.005170057772787e-10 -9.013079727004936e-10 -1.5558598853715466e-09 -7.730909824371338 5.474879741668701 -0.4173140823841095 2.0052100258016736e-10 -9.013099155907867e-10 -1.5558598853715466e-09 -2.9055399894714355 0.9651829600334167 -0.10290199518203735 2.0051099669515793e-10 -9.013099155907867e-10 -1.5558698773787683e-09 -10.27859878540039 0.73180091381073 -0.025912316516041756 2.005230009816117e-10 -9.013180202188664e-10 -1.5558799804082923e-09 -2.221669912338257 -0.733487069606781 0.208919957280159 -2.0321699480147914e-16 0.0 -3.8825099822884138e-19 -6.952179908752441 -1.858299970626831 -6.335819244384766 -0.5536539554595947 59.99989700317383 3.3176698684692383 -20.60639762878418 -23.48470115661621 -32.4203987121582 2.0321699480147914e-16 0.0 3.8825099822884138e-19 94.58269500732422 -61.6199951171875 84.65249633789062 24.321496963500977 87.44242095947266 -24.54379653930664 2.001569986343384 23.113101959228516 -8.394099235534668
-2.410800009592971 70.75009787603771 76.29306972513693 -6.449000835418701 -28.546001434326172 -7.7995991706848145 8.558089256286621 25.92889976501465 7.896520137786865 -2.691779851913452 -7.919219970703125 2.224289894104004 -3.8222496509552 14.055800437927246 1.9598802328109741 5.532190322875977 -26.02570343017578 5.29278039932251 -0.0 0.0 -0.0 -0.0 0.0 -0.0 1.5838599962819666e-13 1.0248999050702437e-13 -2.470249753448034e-13 69.32489776611328 41.62190628051758 -21.55059814453125 -28.22559928894043 -32.193607330322266 70.76759338378906 -0.15871401131153107 11.282098770141602 1.6066299676895142 -6.279189945779251e-10 9.343439216769056e-11 9.264339295711466e-10 -1.074239919240938e-09 1.2414998196152993e-10 1.6043498751727725e-09 -6.279149977750365e-10 9.343600199107627e-11 9.26428989078687e-10 7.730909824371338 5.474879741668701 0.4173140823841095 -6.279169406653295e-10 9.343700119179843e-11 9.26428989078687e-10 2.9055399894714355 0.9651829600334167 0.10290199518203735 -6.279149977750365e-10 9.343329582245374e-11 9.264240485862274e-10 10.27859878540039 0.73180091381073 0.025912316516041756 -6.279199937786473e-10 9.343480156243089e-11 9.264299882794091e-10 2.221669912338257 -0.733487069606781 -0.208919957280159 1.582579960092076e-13 1.0248099162899274e-13 -2.472239806535631e-13 -71.06099700927734 23.07010269165039 4.3727593421936035 26.307802200317383 -24.25099754333496 -58.07209396362305 0.6022219657897949 -21.495601654052734 3.172769784927368 9.00239952028592e-11 9.409389933878742e-10 -4.691860094885314e-11 1.6148000991922373e-10 1.6478498565675181e-09 -8.249740474086664e-11 9.002099760069271e-11 9.409449885922072e-10 -4.691659907796186e-11 -7.730909824371338 5.474879741668701 -0.4173140823841095 9.0025598087351e-11 9.409449885922072e-10 -4.6916196622115436e-11 -2.9055399894714355 0.9651829600334167 -0.10290199518203735 9.002078943387559e-11 9.40943989391485e-10 -4.6917400520207764e-11 -10.27859878540039 0.73180091381073 -0.025912316516041756 9.002869977292605e-11 9.409389933878742e-10 -4.6928096825160637e-11 -2.221669912338257 -0.733487069606781 0.208919957280159 -2.0321699480147914e-16 0.0 -3.8825099822884138e-19 -6.507629871368408 -0.07666338980197906 -4.876290321350098 -0.47993192076683044 57.530696868896484 3.0975496768951416 -20.519102096557617 -22.701200485229492 -32.771202087402344 2.0321699480147914e-16 0.0 3.8825099822884138e-19 79.44248962402344 -60.477813720703125 66.79570007324219 3.2800397872924805 75.11249542236328 -3.315920114517212 4.718229293823242 30.70880126953125 -11.309398651123047
